# xmcd
#
# Track frame offsets: 
#        150
#        12688
#        27436
#        38344
#        54112
#        67626
#        82886
#        94449
#        107818
#        119448
#        133809
#        155508
#        165077
#
# Disc length: 2405 seconds
#
# Revision: 0
# Processed by: cddbd v1.5.1PL0 Copyright (c) Steve Scherf et al.
# Submitted via: ExactAudioCopy v0.95a5
#
DISCID=9809630d
DTITLE=Pacific Crest - Poppin' Johnny
DYEAR=2000
DGENRE=Bluegrass
TTITLE0=Love's Gonna Live Here (Buck Owens)
TTITLE1=White Oak On The Hill (Carl R. Nelman)
TTITLE2=Theme Time (J. Martin, B. Emerson, P. Williams)
TTITLE3=Some Old Day (Stacey Cirtain)
TTITLE4=Close To The Edge (Gene C. Johnson, Carl Jackson)
TTITLE5=Leave My Woman Alone (Ray Charles)
TTITLE6=Please Search Your Heart (Doyle Lawson, Pete Gobel)
TTITLE7=In Heaven We'll Never Grow Old (William York)
TTITLE8=Baby Girl (Carter Stanley)
TTITLE9=Mama Tried (Merle Haggard)
TTITLE10=You'll Find Her Name Written There (Harold Hensley)
TTITLE11=Going Up (Vernon Gosdin, Rex Gosdin)
TTITLE12=Poppin' Johnny (Craig Wilson)
EXTD=
EXTT0=
EXTT1=
EXTT2=
EXTT3=
EXTT4=
EXTT5=
EXTT6=
EXTT7=
EXTT8=
EXTT9=
EXTT10=
EXTT11=
EXTT12=
PLAYORDER=
